<?xml version="1.0" encoding="UTF-8" standalone="no"?>
<!-- Created with Inkscape (http://www.inkscape.org/) -->

<svg
   width="223.09032"
   height="204.9977"
   viewBox="0 0 59.025979 54.238973"
   version="1.1"
   id="svg5"
   xml:space="preserve"
   inkscape:version="1.2.2 (b0a8486541, 2022-12-01)"
   sodipodi:docname="logo-loader.svg"
   inkscape:export-filename="../Logo PNG/dbatera-logo-laranja.png"
   inkscape:export-xdpi="96"
   inkscape:export-ydpi="96"
   xmlns:inkscape="http://www.inkscape.org/namespaces/inkscape"
   xmlns:sodipodi="http://sodipodi.sourceforge.net/DTD/sodipodi-0.dtd"
   xmlns="http://www.w3.org/2000/svg"
   xmlns:svg="http://www.w3.org/2000/svg"><sodipodi:namedview
     id="namedview7"
     pagecolor="#ffffff"
     bordercolor="#000000"
     borderopacity="0.25"
     inkscape:showpageshadow="2"
     inkscape:pageopacity="0.0"
     inkscape:pagecheckerboard="0"
     inkscape:deskcolor="#d1d1d1"
     inkscape:document-units="mm"
     showgrid="false"
     inkscape:zoom="0.94964927"
     inkscape:cx="116.35875"
     inkscape:cy="100.03693"
     inkscape:window-width="1366"
     inkscape:window-height="699"
     inkscape:window-x="0"
     inkscape:window-y="32"
     inkscape:window-maximized="1"
     inkscape:current-layer="layer1" /><defs
     id="defs2"><clipPath
       clipPathUnits="userSpaceOnUse"
       id="clipPath361"><rect
         style="opacity:0.279086;fill:#000000;stroke:#000000;stroke-width:0;stroke-miterlimit:4.1;stroke-dashoffset:1102.68;paint-order:stroke fill markers"
         id="rect363"
         width="213.41745"
         height="196.10928"
         x="35.109802"
         y="21.031075" /></clipPath><clipPath
       clipPathUnits="userSpaceOnUse"
       id="clipPath365"><rect
         style="opacity:0.279086;fill:#000000;stroke:#000000;stroke-width:0;stroke-miterlimit:4.1;stroke-dashoffset:1102.68;paint-order:stroke fill markers"
         id="rect367"
         width="806.61713"
         height="741.20044"
         x="1012.7213"
         y="0.00015712105" /></clipPath></defs><g
     inkscape:label="Camada 1"
     inkscape:groupmode="layer"
     id="layer1"
     transform="translate(-112.30368,-114.69718)"><g
       id="g952"
       transform="matrix(0.27657524,0,0,0.27657524,102.59318,108.88051)"><g
         id="g202"
         transform="matrix(0.26458333,0,0,0.26458333,-232.83935,21.031033)"
         clip-path="url(#clipPath365)"><path
           style="opacity:1;fill:#ffffff;fill-opacity:1;stroke:none;stroke-width:1.85208;stroke-miterlimit:4.1;stroke-dasharray:none;stroke-dashoffset:1102.68;stroke-opacity:1;paint-order:stroke fill markers"
           d="M 45.79734,124.52287 C 42.45933,116.14298 93.597246,72.993682 143.6325,65.033455 l 52.25461,-42.898059 3.5942,1.33517 0.71632,3.312519 -30.21651,25.526651 42.67084,-26.19739 2.22571,1.70389 1.0401,3.24322 -27.33645,18.319739 c 14.99542,1.205862 27.04472,6.805931 28.5476,7.8388 l 6.6343,3.60708 0.15455,6.612041 0.75537,0.79589 9.304,2.53388 2.22172,28.899768 5.69037,10.336396 0.63628,10.99082 1.26419,9.58335 0.20891,6.02541 0.54344,11.82742 -2.81017,8.44987 C 190.16554,204.27542 139.11231,216.5105 88.27867,213.69836 L 75.077438,201.73799 63.75524,166.40389 57.043298,154.67896 44.46275,139.4926 40.86738,125.00652 Z"
           id="path6045"
           sodipodi:nodetypes="ccccccccccccccccccccccccccccc"
           transform="matrix(3.7795276,0,0,3.7795276,880.02275,-79.48737)" /><rect
           width="60"
           height="200"
           x="0"
           fill="#eae9e9"
           id="#eae9e9"
           y="0" /><rect
           width="60"
           height="200"
           x="60"
           fill="#515151"
           id="#515151"
           y="0" /><rect
           width="60"
           height="200"
           x="120"
           fill="#f35533"
           id="#f35533"
           y="0" /><rect
           width="60"
           height="200"
           x="180"
           fill="#8e8e8e"
           id="#8e8e8e"
           y="0" /><rect
           width="60"
           height="200"
           x="240"
           fill="#df7b60"
           id="#df7b60"
           y="0" /><g
           id="Muzli"
           transform="translate(115,65)"
           fill="#ffffff"><path
             d="M 35,70 C 15.670034,70 0,54.329966 0,35 0,15.670034 15.670034,0 35,0 54.329966,0 70,15.670034 70,35 70,54.329966 54.329966,70 35,70 Z M 49.891612,42.528336 c -0.236166,-0.365779 -0.72405,-0.485384 -1.088091,-0.06154 -0.298375,0.300752 -0.555853,0.627051 -0.824276,0.956252 -4.186469,3.022035 -4.259623,0.03658 -4.212389,-0.701367 0.191236,-0.814585 0.444682,-1.519437 0.75861,-2.275381 0.769555,-1.936889 1.807532,-3.543416 2.6416,-5.479724 0.512652,-1.226813 1.089818,-2.453045 1.538533,-3.743724 0.32084,-0.902837 0.128451,-1.871281 -0.512652,-2.645805 -0.705617,-0.710076 -1.603047,-0.839551 -2.693442,-0.580602 -1.475171,0.387262 -2.821316,1.161785 -3.975648,2.129649 -0.192388,0.193921 -0.44929,0.322234 -0.641679,0.516156 0,-0.193922 0.06451,-0.322235 0.06451,-0.451709 C 41.266952,29.15823 41.65173,28.189785 41.203015,27.028 41.010626,26.512425 40.7543,26.060136 40.241072,25.737321 39.151253,25.1573 38.124796,25.285032 37.163429,25.543981 c -1.603047,0.451708 -2.886406,1.419572 -4.040162,2.516911 -0.320263,0.322815 -0.705041,0.644468 -1.02588,1.032891 0.127875,-0.710076 0.320839,-1.356287 0.320839,-2.065783 0,-1.742968 -1.02588,-2.839145 -2.757378,-3.420328 -1.346721,-0.386681 -2.693441,-0.323395 -4.040162,-0.06445 -1.34672,0.258368 -2.628927,0.709496 -3.783259,1.48402 -0.769555,0.516736 -1.475172,1.097338 -1.859373,2.065783 -0.192965,0.516155 -0.192965,1.096757 0,1.67736 0.256902,0.710076 1.026457,1.097919 1.796011,0.516155 0.89743,-0.581183 1.666985,-1.290098 2.564414,-1.935147 1.346721,-1.033472 2.692865,-1.93689 4.488877,-2.066364 0.577166,-0.06445 1.090394,0.194502 1.282207,0.775104 0.06451,0.257788 0.127875,0.64563 0,0.903417 -0.191813,0.64563 -0.384778,1.290679 -0.705041,1.871862 -0.833493,1.4846 -1.732074,2.903592 -2.693442,4.388773 -1.218269,1.871862 -2.56499,3.742563 -3.783835,5.613844 -0.896854,1.355126 -1.730922,2.775859 -2.4999,4.130985 -0.384778,0.64563 -0.642256,1.355126 -0.513805,2.12965 0.129027,1.096757 1.603623,1.67794 2.30924,1.355125 0.704465,-0.322234 1.089818,-0.903417 1.47402,-1.484019 0.706193,-1.226813 1.411234,-2.452464 2.116275,-3.678697 1.795435,-3.291434 3.783835,-6.453975 6.091923,-9.358147 1.154332,-1.484601 2.436539,-2.839146 3.976224,-3.936484 0.704465,-0.452289 1.410082,-0.839551 2.308088,-0.903417 0.32084,-0.06503 0.577166,0.128893 0.641103,0.451128 0.06394,0.387842 0.192389,0.839551 0.06394,1.226232 -0.256326,0.83897 -0.577166,1.67794 -1.025881,2.452464 -1.603047,2.775279 -3.269455,5.550558 -4.873654,8.325837 -0.705041,1.161785 -1.34672,2.451884 -1.92331,3.678116 -0.320264,0.64621 0,1.549047 0.705617,1.871862 0.769554,0.386681 1.666408,0.386681 2.052338,-0.387262 1.410082,-2.775279 2.885253,-5.550558 4.359849,-8.26081 1.154332,-2.194677 2.692865,-4.129824 4.80914,-5.549977 0.769555,-0.516736 1.538533,-0.903418 2.501052,-1.097339 0.513229,-0.129474 0.898006,0.129475 0.833493,0.645049 0,0.322815 -0.06394,0.64563 -0.256903,0.903998 -0.641103,1.226232 -1.346144,2.387437 -1.987824,3.61425 -1.089818,1.871281 -2.24415,3.742562 -2.821316,5.937239 -0.256326,0.968445 -0.448715,2.000755 -0.06394,3.097513 0.52878,1.450345 2.023537,2.584261 3.631191,2.628967 0.0576,0.01161 0.123843,0.02206 0.199877,0.03019 0.816212,0.04529 1.574822,-0.162569 2.308088,-0.478997 0.734994,-0.316429 1.408354,-0.734462 1.966512,-1.315064 0.372681,-0.388423 0.700432,-0.804135 0.796051,-1.395768 0.04378,-0.314687 -0.02995,-0.641566 -0.213125,-0.942318 z"
             id="Muzli logo" /></g></g><path
         style="fill:#ff3000;fill-opacity:1;stroke:#000000;stroke-width:1.852;stroke-dasharray:none;stroke-opacity:1"
         d="m 89.094357,215.32384 c -0.33146,-0.2107 -0.970067,-1.4711 -0.815687,-1.62548 0.2304,-0.2304 3.848787,1.09082 3.848787,1.40535 0,0.44975 -1.72799,0.43122 -2.28843,0.42591 -0.23504,-0.002 -0.57014,-0.0948 -0.74467,-0.20578 z m 10.81037,0.56242 c -3.2587,-0.29588 -5.87058,-0.68215 -7.2667,-1.07466 -0.2285,-0.0642 -0.6789,-0.75239 -1.00087,-1.52921 -0.47082,-1.13593 -0.53128,-1.55476 -0.30888,-2.13971 0.38483,-1.01218 -0.10474,-2.67871 -1.07066,-3.64463 -0.50061,-0.5006 -0.60844,-0.71782 -0.30928,-0.62297 1.66087,0.52658 6.56309,1.00658 11.571833,1.13304 6.63172,0.16744 12.56997,-0.17412 19.44687,-1.11856 4.56825,-0.62738 12.75212,-2.07701 13.63208,-2.41468 0.38789,-0.14885 0.41028,-0.0949 0.15704,0.37829 -0.16245,0.30354 -0.29537,1.1074 -0.29537,1.78637 0,1.05113 0.1336,1.36807 0.89959,2.13406 0.49477,0.49477 1.13155,0.89958 1.41507,0.89958 0.35938,0 0.64698,0.33472 0.94966,1.10528 0.23879,0.6079 0.39687,1.14256 0.3513,1.18813 -0.42823,0.42823 -11.75843,2.5399 -17.37395,3.23807 -8.73772,1.08636 -14.32376,1.26943 -20.797733,0.6816 z M 87.31535,213.19661 c 0.191,-0.0764 0.4192,-0.067 0.50712,0.0209 0.0879,0.0879 1.026433,1.40975 0.747563,1.39826 -0.30822,-0.0127 -1.465753,-1.33469 -1.254683,-1.41914 z m 51.29058,-0.52482 c -0.47784,-0.47784 -0.0317,-0.84035 1.41111,-1.14653 0.87313,-0.18529 1.5875,-0.36533 1.5875,-0.4001 0,-0.0348 -0.29403,-0.72809 -0.65341,-1.54071 -0.4396,-0.99401 -0.55953,-1.5355 -0.36652,-1.65479 0.47352,-0.29266 0.10196,-2.69915 -0.55366,-3.58592 -0.32432,-0.43866 -0.54942,-0.8277 -0.50023,-0.86451 0.0492,-0.0368 1.63726,-0.45732 3.52903,-0.93446 15.11376,-3.81195 32.91094,-10.22125 46.40898,-16.71328 2.38713,-1.14811 4.36525,-2.08748 4.39583,-2.08748 0.0306,0 0.25652,0.52613 0.5021,1.16917 0.44482,1.16475 1.34405,2.00583 2.14449,2.00583 0.49111,0 1.61398,2.32962 1.27602,2.64733 -0.32198,0.30267 -7.45369,3.91574 -10.40971,5.27376 -8.72636,4.00897 -17.41116,7.47563 -26.32604,10.50842 -5.60346,1.90626 -14.89804,4.71718 -17.80105,5.38349 -1.09018,0.25022 -1.48016,0.48165 -1.77616,1.05404 -0.20859,0.40338 -0.572,0.80738 -0.80756,0.89778 -0.56685,0.21752 -1.83859,0.21009 -2.06072,-0.012 z m -54.74153,-1.0534 c -3.50813,-1.87126 -7.1164,-5.62041 -7.80992,-8.11487 -0.29972,-1.07802 -0.59932,-1.61941 -0.97704,-1.76553 -0.58958,-0.22808 -1.48777,-1.14045 -1.9558,-1.98668 -0.16097,-0.29105 -0.29629,-0.37252 -0.30072,-0.18105 -0.004,0.19147 0.12705,0.60055 0.29216,0.90906 0.25689,0.48 0.1951,0.65135 -0.42824,1.18752 -1.03751,0.89243 -1.73477,0.68738 -2.5178,-0.74041 -0.3638,-0.66337 -1.17609,-1.66728 -1.8051,-2.23091 -1.8197,-1.63059 -2.25724,-2.74065 -2.0964,-5.31873 0.0742,-1.18909 0.0594,-2.28415 -0.0329,-2.43346 -0.0923,-0.14932 -0.58424,-0.28383 -1.09325,-0.29891 -0.509,-0.0151 -1.16359,-0.0376 -1.45463,-0.0502 -0.29104,-0.0125 -1.10374,0.19723 -1.806,0.46611 l -1.27684,0.48886 -0.64139,-0.74236 c -0.65109,-0.75358 -0.86448,-2.13124 -0.37681,-2.43264 0.45857,-0.28341 0.29329,-0.61263 -0.68038,-1.35529 l -0.94497,-0.72076 -1.47856,0.72516 -1.47855,0.72515 -0.6423,-0.64229 c -0.39401,-0.39401 -0.65892,-0.98571 -0.68533,-1.53073 -0.0392,-0.8082 0.0754,-0.95308 1.26878,-1.60436 1.08639,-0.59291 1.31373,-0.84443 1.32292,-1.4637 0.009,-0.60263 0.2175,-0.85211 1.07458,-1.28538 l 1.06347,-0.53762 -0.5077,-1.31447 c -0.36219,-0.93771 -0.51533,-2.03489 -0.53431,-3.828 -0.0252,-2.38514 0.0197,-2.59904 0.88087,-4.1873 0.96455,-1.77903 2.29032,-3.09127 4.28714,-4.2434 l 1.22586,-0.70731 -1.11069,-2.37631 c -0.61089,-1.30696 -1.85911,-4.06095 -2.77384,-6.11997 l -1.66314,-3.74366 -1.16427,0.51501 c -2.38217,1.05375 -4.86954,0.90376 -8.03392,-0.48446 -1.93088,-0.84707 -2.21014,-1.13363 -3.89824,-4.00009 -1.67917,-2.85129 -3.01497,-6.30005 -3.07817,-7.94717 -0.0567,-1.47869 0.75232,-2.25745 2.08544,-2.00735 0.47697,0.0895 1.12897,0.0796 1.44889,-0.0219 0.53547,-0.16995 0.54773,-0.21856 0.15435,-0.61194 -0.35845,-0.35845 -0.56138,-0.37673 -1.2589,-0.11345 -0.94903,0.35822 -1.2832,0.24195 -1.2832,-0.44647 0,-1.09123 -0.85375,-2.36277 -2.70066,-4.02223 -1.18255,-1.06253 -2.12322,-2.1602 -2.38077,-2.77813 -0.7225,-1.73343 -1.38205,-5.14812 -1.08524,-5.61865 0.19048,-0.30198 0.0915,-0.80684 -0.35675,-1.82053 -0.34118,-0.77146 -0.62033,-1.5594 -0.62033,-1.75098 0,-0.59351 0.98125,-1.27259 1.90081,-1.31547 0.82801,-0.0386 0.92142,0.052 1.66201,1.61274 0.54094,1.13998 0.93505,1.65364 1.26876,1.65364 0.42039,0 0.45639,-0.13052 0.27364,-0.99218 -0.49347,-2.32678 -0.008,-5.2228 1.31831,-7.87136 1.37133,-2.73755 5.90036,-7.78716 9.90424,-11.04266 1.63055,-1.32578 1.6422,-1.34494 1.49042,-2.45229 -0.13213,-0.96403 -0.0686,-1.17515 0.466,-1.54963 0.78237,-0.54799 1.79267,-0.55884 1.99889,-0.0215 0.21795,0.56798 0.4218,0.45735 3.8376,-2.082794 7.82622,-5.81993 19.8116,-12.96884 31.133087,-18.56992 2.5154,-1.24444 3.74439,-1.99336 3.74597,-2.28271 0.004,-0.69739 0.7382,-1.1091 2.06667,-1.15861 0.86648,-0.0323 2.04438,-0.42694 3.888803,-1.30293 8.3296,-3.95604 22.52263,-9.4982 37.43214,-14.61666 4.48779,-1.54067 7.46157,-2.7017 7.77119,-3.03404 0.38659,-0.41495 0.69942,-0.50123 1.36483,-0.37639 0.57888,0.10859 1.84693,-0.11265 3.84912,-0.67158 l 2.98584,-0.83352 20.3379,-16.83366 c 11.18584,-9.25851 20.70563,-16.98892 21.15508,-17.17869 1.1065,-0.46719 2.15436,-0.0779 3.5942,1.33517 1.23783,1.21483 1.46141,2.24876 0.71632,3.31252 -0.22495,0.32117 -7.19011,6.19329 -15.47812,13.04916 -8.28802,6.85586 -15.06912,12.52775 -15.06912,12.6042 0,0.0764 0.14882,0.0194 0.33073,-0.12671 0.1819,-0.14614 9.55807,-6.07429 20.83593,-13.17368 18.81605,-11.84465 20.61475,-12.91751 21.83491,-13.02371 1.29838,-0.113 1.35649,-0.0867 2.46632,1.11735 1.96169,2.12818 2.18439,3.55625 0.75346,4.83161 -0.3194,0.28468 -6.53385,4.24793 -13.80989,8.80723 -7.27605,4.5593 -13.34228,8.3891 -13.48053,8.51066 -0.13857,0.12185 0.42531,0.22102 1.25677,0.22102 1.34425,0 1.50813,-0.059 1.50813,-0.54267 0,-0.36914 0.29339,-0.66525 0.91754,-0.92604 1.24266,-0.51921 1.35289,-0.49592 1.7078,0.3609 l 0.30828,0.74427 4.68476,0.31017 c 5.08033,0.33636 8.55134,0.9879 10.83662,2.03414 2.4283,1.11171 4.68252,2.89353 5.82482,4.60414 1.02739,1.53853 1.05417,1.55693 1.50288,1.03287 0.43421,-0.50713 0.42936,-0.59974 -0.0981,-1.86883 -0.50593,-1.21739 -0.51933,-1.38955 -0.15185,-1.9504 0.41849,-0.63869 1.33719,-1.00051 2.14528,-0.84489 0.28257,0.0544 0.6991,0.66618 1.05178,1.54478 0.32207,0.80233 0.77744,1.49367 1.01542,1.54161 0.52605,0.10597 2.06155,3.08575 2.67177,5.18481 0.38757,1.33322 0.40428,1.80745 0.12655,3.59279 -0.25863,1.66252 -0.25325,2.24133 0.028,3.01925 0.2524,0.69802 0.45992,0.91667 0.75537,0.79589 0.22404,-0.0916 0.97285,-0.22364 1.66401,-0.29346 0.98253,-0.0992 1.29172,-0.0356 1.41737,0.29187 0.12614,0.32869 0.57317,0.4188 2.07766,0.4188 2.22861,0 3.35176,0.57356 4.14496,2.11667 0.63302,1.23152 3.15642,10.33966 4.10494,14.81667 0.64972,3.06669 0.75573,4.1519 0.74955,7.67291 -0.009,5.14222 -0.4558,6.23002 -2.63277,6.41019 -1.49179,0.12346 -0.48024,0.847914 2.89427,2.072794 3.29701,1.19674 3.4618,1.22927 4.27156,0.84312 0.99119,-0.47267 2.13947,-0.27229 2.27801,0.39752 0.205,0.99115 -0.12779,1.67594 -0.98941,2.03595 -0.62608,0.26159 -0.91657,0.58858 -1.04587,1.17726 -0.1792,0.81591 -1.07626,1.72197 -1.99292,2.01291 -0.45669,0.14495 -0.43908,0.26015 0.27473,1.79684 1.34985,2.90594 1.53585,5.85401 0.52094,8.25655 -0.42896,1.01545 -0.42429,1.12624 0.11534,2.73427 0.47721,1.42203 0.75521,1.81585 1.83489,2.59938 1.63905,1.18945 2.25123,2.54716 2.39131,5.30348 0.0584,1.15003 0.30204,2.5595 0.54132,3.13217 0.55156,1.32008 0.35993,2.08466 -0.6247,2.49251 -1.11003,0.45979 -1.68162,0.26578 -2.18515,-0.7417 l -0.44106,-0.8825 -0.18731,1.49923 c -0.12629,1.01075 -0.0794,1.72958 0.1438,2.20619 0.4257,0.9089 0.77329,3.4167 0.96302,6.94798 0.12702,2.3642 0.0615,3.12574 -0.41958,4.87944 -0.60381,2.20089 -2.77479,7.00351 -3.16588,7.00351 -0.3456,0 -0.56889,-0.75268 -0.27683,-0.93319 0.34874,-0.21553 0.31851,-2.14947 -0.0446,-2.85452 -0.4856,-0.94286 -1.34909,-1.76854 -1.84952,-1.76854 -0.89132,0 -0.79762,-0.55779 0.5268,-3.13617 2.40901,-4.68984 3.38074,-9.63504 2.69368,-13.70836 -0.43887,-2.60194 -1.02665,-3.41102 -0.80051,-1.10191 0.22375,2.28471 -0.14926,6.05254 -0.82062,8.28915 -0.72331,2.40967 -2.91812,7.09093 -3.19484,6.81421 -0.52228,-0.52228 -2.34564,-5.1977 -2.20269,-5.6481 0.0857,-0.27 0.50297,-0.73811 0.92728,-1.04024 0.82273,-0.58583 0.81821,-0.5735 2.12984,-5.81442 0.63564,-2.53982 0.83249,-3.92126 0.8483,-5.95312 0.019,-2.44124 -0.41014,-5.27174 -0.83947,-5.53709 -0.0992,-0.0613 -0.13325,1.06256 -0.0756,2.49751 0.10028,2.49677 -0.14941,4.75389 -0.77251,6.98327 l -0.28879,1.03328 -0.5982,-1.47183 c -1.51701,-3.73252 -4.06938,-6.64181 -7.15474,-8.15523 -1.67557,-0.82189 -2.05695,-0.90495 -4.10104,-0.89312 -2.00255,0.0116 -2.43721,0.10746 -3.90086,0.86044 -0.90595,0.46607 -2.35604,1.53177 -3.22241,2.36821 l -1.57523,1.52081 3.16299,6.74687 c 2.64901,5.65051 3.34463,6.91398 4.28075,7.77519 1.37725,1.26705 2.60605,1.81419 3.56738,1.58843 0.90185,-0.21179 2.3064,-1.51066 2.72414,-2.51919 0.17292,-0.41745 0.41344,-0.75901 0.5345,-0.75901 0.12105,0 0.46532,0.55436 0.76503,1.23191 0.51502,1.16427 0.52067,1.26958 0.10305,1.91822 -1.98555,3.08399 -9.81977,10.9172 -14.79221,14.79033 -6.81432,5.3078 -22.00283,14.83977 -22.58502,14.17385 -0.11156,-0.12761 -0.34529,-0.59449 -0.5194,-1.03752 -0.29761,-0.75728 -0.25517,-0.87201 0.70887,-1.91625 0.90766,-0.98318 1.63954,-2.53945 1.63954,-3.48633 0,-0.65904 -2.20489,-6.56452 -3.33426,-8.93032 -0.64021,-1.34112 -1.49882,-2.8294 -1.90802,-3.30729 -0.4092,-0.47789 -1.07285,-1.44104 -1.47478,-2.14033 -0.83855,-1.45896 -1.66952,-1.97435 -2.4821,-1.53947 -0.40851,0.21863 -0.60824,0.19783 -0.8455,-0.0881 -1.15182,-1.38786 -6.189,0.0393 -8.0829,2.29004 -0.40233,0.47815 -0.61528,0.98772 -0.52786,1.26316 0.0806,0.25392 -0.0347,0.61214 -0.25631,0.79602 -0.22157,0.18388 -0.40285,0.73766 -0.40285,1.2306 0,0.95454 2.89929,8.55948 4.40012,11.54168 1.41525,2.81217 3.53696,4.03711 5.93729,3.42784 0.84866,-0.21541 1.27482,-0.18137 2.10106,0.16783 0.89163,0.37684 1.11668,0.65184 1.61052,1.96802 0.31573,0.84148 0.52832,1.57201 0.47243,1.62339 -0.32146,0.29552 -6.85314,3.43051 -11.11879,5.33666 -10.55344,4.7159 -21.78545,8.79927 -33.69742,12.25062 -2.40246,0.69608 -11.49688,2.93957 -11.91614,2.93957 -0.17753,0 -0.47321,-0.36317 -0.65707,-0.80704 -0.45249,-1.0924 -0.0198,-1.87024 1.85758,-3.33924 1.94765,-1.52398 2.71686,-2.71759 2.93239,-4.55029 0.16628,-1.41397 0.0674,-1.77304 -1.93965,-7.04614 -2.43739,-6.40364 -2.8036,-7.09821 -3.97164,-7.53299 -0.47165,-0.17556 -1.19688,-0.50098 -1.6116,-0.72316 -1.96161,-1.05089 -7.89844,1.18157 -8.28523,3.11554 -0.0873,0.43658 -0.37842,0.91134 -0.6469,1.05503 -0.95494,0.51106 -1.04013,1.1067 -0.62806,4.39124 0.21625,1.72366 0.56357,3.69173 0.77181,4.37349 0.37436,1.22556 3.15489,8.44438 3.54806,9.21147 0.32981,0.64346 2.95911,1.85209 4.02913,1.85209 1.04468,0 1.64885,0.65682 0.82725,0.89935 -0.65691,0.19392 -5.84667,1.12064 -8.98474,1.60439 -11.93022,1.83909 -24.596763,2.02402 -33.33509,0.48668 -1.34607,-0.23681 -2.44739,-0.53029 -2.44739,-0.65217 0,-0.29566 0.60523,-0.28016 1.43903,0.0369 1.736407,0.66018 3.052947,-1.21161 3.243387,-4.6113 l 0.11929,-2.12943 -2.776337,-6.35 -2.77634,-6.35 -0.99366,-0.23565 c -1.20341,-0.2854 -3.97914,0.17269 -5.38152,0.88813 -1.32871,0.67785 -3.11529,2.68245 -3.85754,4.32826 -0.88998,1.9734 -1.28055,4.99483 -0.95207,7.36517 0.1467,1.05867 0.21355,1.97803 0.14855,2.04303 -0.3322,0.33221 -3.66043,-3.03425 -5.20471,-5.2645 -0.36531,-0.52758 -0.34018,-0.32601 0.12701,1.0184 0.72136,2.07588 2.46209,4.28647 4.61796,5.86445 0.89466,0.65485 1.63557,1.30969 1.64648,1.45521 0.0109,0.14552 0.46338,0.95186 1.00551,1.79186 1.39341,2.15902 3.03504,2.90213 5.04241,2.28253 0.21286,-0.0657 0.63374,0.56953 1.11331,1.6803 0.42408,0.98226 0.65734,1.78594 0.51836,1.78594 -0.66156,0 -3.92159,-1.79189 -5.75225,-3.16175 -2.19186,-1.64014 -2.87213,-2.31286 -4.42803,-4.37888 -0.68729,-0.91261 -0.93579,-1.11776 -0.80122,-0.66146 1.18377,4.01406 5.1344,7.69631 10.65932,9.93522 1.35991,0.55109 1.58349,0.75372 2.08489,1.88948 0.48745,1.10415 0.51365,1.34111 0.19844,1.79407 -0.52118,0.74892 -0.44584,2.24974 0.16308,3.24842 0.28836,0.47294 0.43674,0.85644 0.32974,0.85223 -0.107,-0.004 -0.9959,-0.43512 -1.97532,-0.95754 z m -10.44786,-45.0948 c 2.64944,-0.88837 4.66511,-2.26642 5.64728,-3.86086 l 0.56241,-0.913 -2.7781,-6.26692 c -1.72319,-3.88721 -3.07973,-6.58622 -3.57243,-7.10779 -1.17556,-1.24444 -3.62754,-2.46642 -4.94902,-2.46642 -1.40504,0 -1.9734,0.30998 -2.38344,1.2999 -0.27596,0.66622 -1.27308,1.61051 -1.70062,1.61051 -0.129,0 -1.3253,-2.52372 -1.5883,-3.3507 -0.14718,-0.46277 0.11726,-0.48191 5.58878,-0.40456 9.96813,0.14091 21.064107,-1.46915 35.97714,-5.2204 2.35817,-0.59318 4.3567,-1.0785 4.44118,-1.0785 0.0845,0 0.38825,0.54743 0.67506,1.21652 0.4901,1.14335 0.49654,1.28993 0.10713,2.43692 -0.58547,1.72445 -0.60947,7.28828 -0.0414,9.6079 0.93957,3.83694 2.74531,6.49284 5.26978,7.75083 1.59787,0.79626 2.74124,0.8512 5.14551,0.24727 2.04338,-0.51328 3.94024,-1.70675 4.77318,-3.00319 0.32723,-0.50933 0.78201,-1.1195 1.01063,-1.35594 0.37939,-0.39237 0.16056,-1.01507 -2.50724,-7.13485 -3.15697,-7.24185 -3.83708,-8.27845 -6.20862,-9.46286 -1.21617,-0.60738 -3.27236,-0.75648 -4.12672,-0.29924 -0.39958,0.21385 -0.56066,0.15585 -0.7978,-0.28724 -0.16342,-0.30536 -0.25771,-0.58883 -0.20954,-0.62995 0.0482,-0.0411 1.39727,-0.45834 2.998,-0.92717 15.06131,-4.41127 34.31387,-11.78378 49.19526,-18.83867 5.128,-2.43105 5.58399,-2.599 5.89638,-2.1718 0.47131,0.64456 0.42722,0.82725 -0.25163,1.04271 -1.90617,0.605 -3.37856,2.96006 -3.37856,5.40398 0,2.47492 1.23197,6.13684 4.02805,11.97301 1.13914,2.37768 1.74985,3.37343 2.06897,3.37343 0.24903,0 0.61277,0.19278 0.80831,0.4284 0.28282,0.34077 0.69408,0.40123 2.01059,0.29555 2.78387,-0.22346 6.35371,-2.45526 6.97909,-4.3632 0.17865,-0.54503 0.50296,-1.26482 0.7207,-1.59955 0.33827,-0.52001 0.34696,-0.8281 0.0597,-2.11666 -0.41112,-1.84425 -1.59825,-5.11263 -2.51179,-6.91543 -1.11853,-2.2073 -4.89299,-6.07355 -6.53695,-6.6959 -0.0982,-0.0372 -0.4223,-0.68868 -0.72025,-1.4478 l -0.54173,-1.38022 1.64629,-0.89338 c 0.90547,-0.49135 3.25365,-1.76171 5.21818,-2.82303 12.84463,-6.93915 25.14786,-15.524414 32.4148,-22.619214 0.83583,-0.81603 1.54109,-1.44934 1.56725,-1.40736 0.25298,0.40602 1.47346,3.59349 1.47288,3.84665 -5.3e-4,0.1819 -0.14959,0.33782 -0.33149,0.3465 -0.1819,0.009 -0.92162,0.11271 -1.64383,0.23118 -0.76299,0.12517 -1.61517,0.11011 -2.03415,-0.0359 -0.53838,-0.18768 -0.95925,-0.13833 -1.6612,0.19476 -1.22301,0.58036 -2.46534,3.02008 -2.69006,5.28278 -0.15495,1.56025 -0.11008,1.70103 2.61436,8.202084 3.25043,7.7562 3.06038,7.54158 6.24038,7.04719 2.54057,-0.39497 5.53481,-1.8131 6.64188,-3.14571 0.45283,-0.54508 1.20523,-1.76246 1.67198,-2.70529 0.76108,-1.53732 0.84704,-1.94689 0.83296,-3.96875 -0.0191,-2.741754 -0.87476,-5.119924 -3.23875,-9.001404 -1.35887,-2.23116 -1.6241,-2.5227 -2.36086,-2.59507 -0.79684,-0.0783 -0.87981,-0.20686 -2.07612,-3.21761 l -1.24611,-3.13608 0.9234,-1.14802 c 2.63379,-3.27446 4.50682,-6.73856 5.26532,-9.73802 l 0.51507,-2.03682 -0.73521,-1.64646 -0.73521,-1.64647 v 2.59425 c 0,2.2344 -0.10627,2.86593 -0.7661,4.55271 -0.66553,1.70135 -2.72611,5.08159 -4.3682,7.16572 -0.59794,0.75891 -0.90785,0.59621 -0.8621,-0.45261 0.0176,-0.40373 0.0505,-1.21521 0.073,-1.80329 0.0504,-1.3148 -0.60271,-2.64075 -1.59927,-3.24679 l -0.75009,-0.45616 1.44333,-1.97039 c 2.55062,-3.48206 4.24847,-6.98656 4.69998,-9.7012 0.14178,-0.85245 0.0453,-1.41446 -0.43147,-2.51354 l -0.61409,-1.41561 -0.15385,2.64584 c -0.12631,2.17228 -0.3045,2.99554 -0.99556,4.59971 -0.80843,1.87658 -2.47096,4.57613 -3.84801,6.2482 l -0.6537,0.79376 -0.41109,-0.97294 c -0.4668,-1.10478 -1.09377,-1.40917 -2.10818,-1.02349 -1.1908,0.45274 -1.34662,1.25265 -0.58116,2.98347 l 0.66822,1.51096 -1.47692,1.59525 c -3.07341,3.31965 -10.41916,9.06785 -17.43564,13.64376 -8.41703,5.4893 -20.58805,12.358184 -21.4829,12.124164 -0.35926,-0.0939 -0.74519,-0.67672 -1.17308,-1.77142 -0.58457,-1.49552 -0.7101,-1.63844 -1.50695,-1.71573 -1.11788,-0.10842 -2.15472,0.56111 -2.15472,1.39139 0,0.34838 0.23467,1.18089 0.52149,1.85001 0.49918,1.16454 0.50201,1.25536 0.0661,2.12247 -0.39206,0.77996 -0.98861,1.16319 -4.29181,2.75713 -15.63407,7.54412 -33.08498,14.37917 -50.07772,19.6141 -0.94925,0.29243 -1.0344,0.26782 -1.7598,-0.50872 -0.41926,-0.44882 -0.89192,-0.81603 -1.05037,-0.81603 -0.15845,0 -0.63947,-0.77496 -1.06894,-1.72214 -0.87039,-1.9196 -1.25327,-2.19219 -2.40753,-1.71408 -1.0906,0.45174 -1.23285,1.2856 -0.51924,3.04381 0.41632,1.02575 0.50973,1.55037 0.31746,1.78282 -0.14985,0.18116 -0.31275,0.68181 -0.36201,1.11255 -0.0878,0.76804 -0.15348,0.79954 -3.39685,1.63013 -13.80699,3.5358 -23.44321,4.95696 -33.77023,4.98049 l -6.38585,0.0145 -0.72783,-0.7276 c -0.40031,-0.40019 -0.89517,-0.72761 -1.09969,-0.72761 -0.20452,0 -0.71909,-0.7739 -1.14348,-1.71979 -0.71878,-1.60203 -0.83009,-1.71979 -1.62553,-1.71979 -0.96954,0 -2.07864,0.87866 -2.07864,1.64676 0,0.2729 0.18978,0.86317 0.42173,1.31171 l 0.42173,0.81554 -0.75246,-0.18695 c -3.03763,-0.75469 -6.78725,-2.8342 -8.74848,-4.85184 -1.17968,-1.21361 -1.20049,-1.22291 -0.73908,-0.33041 0.26113,0.50509 1.12464,1.59967 1.91891,2.43238 1.54589,1.6207 4.63546,3.35793 7.01196,3.94275 1.13722,0.27986 1.2393,0.36756 1.09536,0.94108 -0.41093,1.63728 1.01783,4.06856 2.39093,4.06856 0.56892,0 1.42777,1.19608 1.09662,1.52723 -0.18225,0.18225 -3.4244,-0.91713 -4.91097,-1.66527 -1.66061,-0.83573 -4.38549,-2.884 -4.91815,-3.69694 -0.24486,-0.3737 -0.50391,-0.62073 -0.57568,-0.54896 -0.28682,0.28682 1.70113,2.9233 2.94645,3.90766 1.75184,1.38475 3.52018,2.26667 6.23341,3.10876 l 2.23082,0.69236 1.43833,3.12553 1.43833,3.12554 -1.23308,1.25191 -1.23309,1.25191 0.28426,1.30232 c 0.83512,3.82614 2.50162,7.4251 4.31956,9.32849 1.14229,1.19598 2.84483,2.16341 4.78464,2.71875 2.14656,0.61453 3.03649,0.6053 4.9962,-0.0518 z m -9.80216,-22.70855 c -0.91183,-0.11438 -1.70838,-0.25846 -1.77012,-0.3202 -0.0617,-0.0617 -0.48049,-0.93299 -0.93057,-1.93612 -0.56301,-1.25484 -0.73304,-1.90915 -0.54498,-2.09721 0.15033,-0.15033 0.27333,-0.63966 0.27333,-1.0874 v -0.81407 l 5.22552,-0.0317 c 9.61423,-0.0583 21.30568,-1.81832 34.63676,-5.21424 l 3.48207,-0.88702 0.56786,0.76807 c 0.31233,0.42244 0.88852,0.83249 1.28043,0.91121 0.60243,0.12102 0.84694,0.47252 1.58185,2.27405 0.47811,1.17201 0.82368,2.17651 0.76796,2.23224 -0.19818,0.19818 -10.433323,2.71539 -14.337243,3.52607 -8.874027,1.84276 -15.341627,2.61804 -23.151037,2.77513 -2.98318,0.06 -6.17,0.0155 -7.08183,-0.0988 z m 46.6869,-9.48196 c -0.56956,-1.41541 -0.83739,-2.41279 -0.68917,-2.56646 0.13334,-0.13825 0.24243,-0.63915 0.24243,-1.11312 v -0.86176 l 2.71198,-0.82114 c 15.33638,-4.64356 33.65549,-11.67957 47.55382,-18.26449 l 4.55652,-2.15885 0.97656,0.95359 c 0.53711,0.52447 1.18645,0.95358 1.44298,0.95358 0.31126,0 0.68163,0.48662 1.11333,1.46275 0.35579,0.80452 0.6469,1.62483 0.6469,1.82292 0,0.9469 -21.78372,10.62331 -35.28843,15.67525 -6.49798,2.43081 -21.15187,7.23283 -22.07178,7.23283 -0.14495,0 -0.68276,-1.0418 -1.19514,-2.3151 z m 60.98325,-23.66087 c -0.40087,-1.11413 -0.50188,-1.72047 -0.31735,-1.905 0.34019,-0.34019 0.35047,-1.77268 0.019,-2.64455 -0.24284,-0.63874 -0.14271,-0.71969 2.84428,-2.29931 13.35182,-7.060914 25.64912,-15.411384 33.4713,-22.728644 1.51107,-1.41354 1.74975,-1.55288 1.89202,-1.10463 0.23291,0.73384 1.45704,1.88935 2.00155,1.88935 0.31431,0 0.65795,0.48192 1.07321,1.50505 l 0.61085,1.50504 -1.96918,1.82242 c -8.12386,7.51837 -18.67417,14.708334 -33.60275,22.899984 -2.70086,1.48203 -5.0286,2.69459 -5.17276,2.69459 -0.14416,0 -0.52673,-0.73544 -0.85014,-1.6343 z M 67.15206,129.76296 c 15.13261,-1.20038 34.79102,-5.78359 57.12228,-13.31765 16.94643,-5.71734 29.38261,-10.77404 43.74073,-17.785524 25.54283,-12.47328 41.58813,-24.90915 45.02404,-34.89578 0.7848,-2.28108 0.72083,-2.60398 -0.72467,-3.65799 -2.68344,-1.95668 -5.90375,-3.21192 -10.45451,-4.07504 -3.39327,-0.64359 -15.00255,-0.64694 -19.77414,-0.006 -5.52394,0.74234 -5.49848,0.73381 -9.23521,3.0941 -1.90563,1.20368 -3.46479,2.21544 -3.46479,2.24836 0,0.0329 1.57758,-0.22234 3.50573,-0.56723 18.07183,-3.2325 31.19378,-2.62494 38.02831,1.76077 0.73066,0.46886 1.32846,1.01865 1.32846,1.22176 0,0.51767 -0.45247,0.45994 -1.33817,-0.17073 -1.09557,-0.78012 -4.26932,-2.03975 -6.72516,-2.66915 -7.76166,-1.98923 -20.22161,-1.55923 -34.00542,1.17355 l -3.0427,0.60325 -21.42119,13.48204 -21.42118,13.48204 -18.00174,14.910354 c -17.44984,14.45325 -20.06703,16.44244 -21.63437,16.44315 -0.27016,1.3e-4 -0.68705,0.44988 -1.01761,1.09784 -1.83146,3.58996 -8.01195,6.74538 -9.76954,4.98779 -0.63094,-0.63094 -0.66552,-1.27814 -0.13604,-2.54538 0.90549,-2.16713 3.39924,-4.4202 6.11332,-5.52328 1.21326,-0.49311 1.53266,-0.77361 2.05442,-1.80422 0.3398,-0.67118 0.48738,-1.14371 0.32795,-1.05007 -0.15942,0.0937 -1.49904,0.9253 -2.97693,1.84812 -2.69873,1.68514 -4.93562,2.63699 -6.59774,2.80751 -0.68377,0.0701 -1.072,0.33768 -1.65209,1.13847 -1.39235,1.92207 -3.58755,3.42941 -6.57214,4.51276 -2.67704,0.97171 -4.34381,0.71528 -5.06005,-0.77848 -1.09439,-2.28239 3.78673,-6.81796 8.47572,-7.8757 1.21027,-0.27302 1.4833,-0.45987 2.07768,-1.42196 0.37637,-0.6092 1.2098,-1.53185 1.85208,-2.05034 0.64228,-0.51848 12.59778,-8.12422 26.567777,-16.901644 13.970003,-8.77742 25.876253,-16.32346 26.458333,-16.76897 0.89604,-0.68581 9.8031,-7.98721 10.57614,-8.6696 0.62108,-0.54824 -9.67071,3.35592 -17.0682,6.47478 -35.6388,15.02569 -62.49275,33.100144 -68.94186,46.402344 -0.55286,1.14035 -1.03277,2.11506 -1.06647,2.16601 -0.0337,0.051 -0.18464,0.0164 -0.33541,-0.0768 -0.35551,-0.21971 0.49844,-2.4047 1.76409,-4.51377 3.91915,-6.53083 11.22635,-13.44418 22.28734,-21.0861 14.46698,-9.995094 38.52295,-21.756054 60.00589,-29.336874 2.86764,-1.01193 5.43724,-1.96758 5.71022,-2.12367 0.77383,-0.4425 6.00753,-4.80228 5.89726,-4.91255 -0.10709,-0.1071 -9.27119,3.03911 -14.99254,5.14722 -12.9058,4.75531 -30.437383,12.63482 -42.33333,19.02658 -19.55486,10.50693 -32.96055,20.375264 -38.0988,28.045674 -1.89408,2.82749 -2.48705,4.61587 -2.41049,7.26994 0.11534,3.9983 9.12772,6.20966 21.35472,5.23977 z m 11.16976,-3.43142 c 2.01476,-0.95313 4.58398,-3.41093 5.05386,-4.83468 0.27465,-0.83221 0.4446,-0.98826 1.07627,-0.98826 1.63861,0 4.26473,-1.96856 19.71073,-14.77525 8.66032,-7.180504 15.74603,-13.104674 15.74603,-13.164834 0,-0.0602 -0.98227,0.50593 -2.18281,1.25797 -9.04832,5.66806 -31.02829,19.521174 -32.17672,20.279724 -1.66791,1.10168 -3.47589,3.27245 -3.47589,4.17338 0,0.53144 -0.19443,0.68285 -1.20304,0.93682 -3.10479,0.78179 -6.99904,4.55807 -6.99904,6.78702 0,1.35634 1.97012,1.50158 4.45061,0.32811 z m -12.75294,-0.77201 c 2.39919,-1.12273 4.14198,-2.4557 5.09827,-3.89944 0.70692,-1.06726 0.93196,-1.22286 1.86969,-1.2928 0.58632,-0.0437 1.63243,-0.27117 2.32469,-0.50543 1.87079,-0.63308 140.58346,-87.960084 141.05624,-88.802404 0.52224,-0.93044 0.25088,-1.77659 -1.0401,-3.24322 -0.9078,-1.03131 -1.24066,-1.23473 -2.0205,-1.23473 -0.78414,0 -12.06128,6.99574 -70.42283,43.68657 -49.623453,31.197354 -69.89092,44.075014 -70.89445,45.045314 -0.7729,0.74731 -1.4694,1.67117 -1.54776,2.05303 -0.12741,0.62081 -0.29801,0.71256 -1.61232,0.86703 -2.7202,0.3197 -6.51927,2.7573 -8.0437,5.16108 -0.8997,1.41869 -0.93738,1.95617 -0.18954,2.70401 0.48622,0.48622 0.77437,0.54368 2.11627,0.422 0.93294,-0.0846 2.25344,-0.46845 3.30604,-0.96101 z m 86.66961,-62.001784 11.82458,-7.44388 17.54417,-14.50901 c 9.6493,-7.97996 17.75254,-14.75699 18.0072,-15.06008 0.75853,-0.90276 0.56845,-1.65078 -0.72169,-2.83999 -1.93916,-1.78745 -2.31441,-1.6756 -6.80561,2.02856 -17.46691,14.40601 -62.6305,51.81939 -63.0503,52.23067 -0.52958,0.51884 1.13406,-0.51414 23.20165,-14.40627 z M 99.272947,206.4809 c -3.70664,-0.26879 -9.50727,-1.18221 -10.722177,-1.68841 -0.65111,-0.27129 -0.9851,-0.76221 -1.80878,-2.65869 -0.55561,-1.27928 -1.06725,-2.47461 -1.13696,-2.65628 -0.10051,-0.26192 0.21923,-0.25916 1.54419,0.0133 4.123637,0.84799 6.858827,1.05396 13.84178,1.04236 9.25975,-0.0154 16.48396,-0.76511 26.70869,-2.77179 2.29501,-0.45042 4.20668,-0.78226 4.24816,-0.73743 0.37175,0.40175 2.49878,6.15139 2.33309,6.30663 -0.24846,0.23279 -6.48947,1.36638 -10.80035,1.96173 -8.34211,1.15208 -18.10252,1.63131 -24.207643,1.18858 z m 38.506453,-4.19775 c -0.0837,-0.13546 -0.72901,-1.55108 -1.43398,-3.14584 l -1.28177,-2.89956 4.52722,-1.12339 c 15.56632,-3.86268 35.37061,-11.09918 48.81277,-17.83622 1.94685,-0.97573 3.63635,-1.67625 3.75446,-1.5567 0.11811,0.11955 0.75999,1.52046 1.42642,3.11313 0.9767,2.33422 1.14653,2.95965 0.87574,3.2252 -0.48453,0.47517 -6.19121,3.26168 -11.71301,5.71935 -12.61161,5.61324 -27.5467,10.71159 -40.44515,13.80665 -4.37911,1.05079 -4.31079,1.04026 -4.5227,0.69738 z m 60.56739,-12.47132 c -0.0959,-0.1552 -0.13271,-0.31261 -0.0818,-0.34979 0.31369,-0.22891 2.58991,-1.48469 2.69113,-1.48469 0.40578,0 0.33452,0.86185 -0.11894,1.43832 -0.38402,0.48821 -0.78339,0.67834 -1.42481,0.67834 -0.49017,0 -0.9697,-0.12698 -1.06562,-0.28218 z m 2.20049,-3.19018 c -0.32389,-0.7708 -0.38145,-1.22546 -0.19844,-1.56742 0.41056,-0.76713 0.30355,-1.65932 -0.35506,-2.96023 l -0.61285,-1.21053 3.96543,-2.20775 c 11.92455,-6.63898 23.03064,-14.98184 29.35515,-22.0515 2.26779,-2.53498 2.56553,-2.78592 2.56553,-2.16223 0,0.51375 1.49006,1.76536 2.10169,1.76536 0.32054,0 0.65685,0.44095 1.04062,1.36442 0.31187,0.75044 2.11445,0.97155 2.1686,0.91234 0.0542,-0.0592 1.51649,-0.67484 1.15393,-1.62419 l -0.44763,-1.1721 0.44763,1.1721 c 0.70461,1.845 -0.20872,2.83438 -2.24124,2.42788 -0.43121,-0.0863 -0.78401,-0.0568 -0.78401,0.0654 0,0.54125 -6.65808,7.37636 -9.4683,9.72006 -1.70468,1.42168 -3.15894,2.65601 -3.2317,2.74295 -0.51521,0.61563 -6.08381,4.57885 -11.64458,8.28754 -3.89287,2.59631 -12.53114,7.59283 -13.11571,7.58635 -0.13356,-0.002 -0.44814,-0.49127 -0.69906,-1.08842 z m -4.07416,-9.27357 c -0.70975,-1.626 -1.32568,-3.04136 -1.36873,-3.14525 -0.043,-0.1039 1.80242,-1.23521 4.10104,-2.51402 13.86308,-7.71257 25.88793,-16.95966 32.08955,-24.6768 0.9412,-1.17121 1.73739,-2.10337 1.7693,-2.07145 0.0319,0.0319 0.60049,1.3528 1.2635,2.9353 l 1.20547,2.87729 -1.02039,1.3515 c -5.66063,7.49745 -16.49999,16.52036 -28.21769,23.489 -4.54684,2.70405 -8.09175,4.71078 -8.32165,4.71078 -0.11547,0 -0.79065,-1.33036 -1.5004,-2.95635 z"
         id="path324"
         sodipodi:nodetypes="cssccsssssssssssssssssssssssssssssssssssssssssscssscssssssscscssscccssscscsccscsscssscscsssssscssssscssccsscsssssscssssssssssssssssscssssssssssssscsssssssssssssssssssscsssssssssssssssssssscssssscsssssssssssssssscsssssssssssssssssssssssssssscscccsssssssssssssssssssscccsscssssssssssscsssssssssssssssssssssssscssssccscsssssssssscsscccsssscscssscssscssscsscssssssssssssscsccsssssscssssssssssssscccccsssssssssscsscssssssssssscsscssssssssssssssscssssscssssscsssssssscccssssssscscsssssssssssccsssssssssccssssssssssscscssssssssssscscssssssssssssssssssscssssssssscsssssssscssssssscscsssscsssssssscssss"
         clip-path="url(#clipPath361)" /></g></g><g
     inkscape:groupmode="layer"
     id="layer2"
     inkscape:label="bg branco"
     transform="translate(-112.30368,-114.69718)" /></svg>
